<mxfile host="app.diagrams.net" modified="2020-12-22T01:24:46.694Z" agent="5.0 (Macintosh; Intel Mac OS X 10_15_7) AppleWebKit/537.36 (KHTML, like Gecko) Chrome/87.0.4280.88 Safari/537.36" etag="3LOMPCzCpVjHp5P7kwhu" version="13.10.3" type="github">
  <diagram id="2qjAtyFo6YwqxPOEbIKh" name="Page-1">
    <mxGraphModel dx="1298" dy="866" grid="1" gridSize="10" guides="1" tooltips="1" connect="1" arrows="1" fold="1" page="1" pageScale="1" pageWidth="1169" pageHeight="1654" math="0" shadow="0">
      <root>
        <mxCell id="0" />
        <mxCell id="1" parent="0" />
        <mxCell id="-gAETM037NJfp5qsJ-lj-37" value="" style="rounded=0;whiteSpace=wrap;html=1;fillColor=none;fontSize=14;fontColor=#000000;strokeColor=#FFB570;strokeWidth=2;" parent="1" vertex="1">
          <mxGeometry x="80" y="40" width="960" height="470" as="geometry" />
        </mxCell>
        <mxCell id="-gAETM037NJfp5qsJ-lj-33" value="" style="rounded=1;whiteSpace=wrap;html=1;fillColor=none;fontSize=10;dashed=1;" parent="1" vertex="1">
          <mxGeometry x="585" y="80" width="415" height="390" as="geometry" />
        </mxCell>
        <mxCell id="-gAETM037NJfp5qsJ-lj-22" value="" style="rounded=1;whiteSpace=wrap;html=1;fillColor=none;fontSize=10;dashed=1;" parent="1" vertex="1">
          <mxGeometry x="120" y="160" width="320" height="310" as="geometry" />
        </mxCell>
        <mxCell id="-gAETM037NJfp5qsJ-lj-1" value="1" style="ellipse;whiteSpace=wrap;html=1;aspect=fixed;strokeColor=#FFB570;fontSize=14;" parent="1" vertex="1">
          <mxGeometry x="140" y="180" width="30" height="30" as="geometry" />
        </mxCell>
        <mxCell id="-gAETM037NJfp5qsJ-lj-3" value="" style="pointerEvents=1;verticalLabelPosition=bottom;shadow=0;dashed=0;align=center;html=1;verticalAlign=top;shape=mxgraph.electrical.miscellaneous.terminal_board" parent="1" vertex="1">
          <mxGeometry x="240" y="330" width="40" height="80" as="geometry" />
        </mxCell>
        <mxCell id="-gAETM037NJfp5qsJ-lj-4" value="" style="pointerEvents=1;verticalLabelPosition=bottom;shadow=0;dashed=0;align=center;html=1;verticalAlign=top;shape=mxgraph.electrical.miscellaneous.terminal_board" parent="1" vertex="1">
          <mxGeometry x="280" y="330" width="40" height="80" as="geometry" />
        </mxCell>
        <mxCell id="-gAETM037NJfp5qsJ-lj-5" value="" style="endArrow=classic;html=1;dashed=1;edgeStyle=orthogonalEdgeStyle;exitX=0.5;exitY=0;exitDx=0;exitDy=0;startArrow=classic;" parent="1" source="-gAETM037NJfp5qsJ-lj-8" edge="1">
          <mxGeometry width="50" height="50" relative="1" as="geometry">
            <mxPoint x="280" y="305" as="sourcePoint" />
            <mxPoint x="370" y="240" as="targetPoint" />
            <Array as="points">
              <mxPoint x="280" y="280" />
              <mxPoint x="370" y="280" />
            </Array>
          </mxGeometry>
        </mxCell>
        <mxCell id="-gAETM037NJfp5qsJ-lj-13" value="USB Cable" style="edgeLabel;html=1;align=center;verticalAlign=middle;resizable=0;points=[];" parent="-gAETM037NJfp5qsJ-lj-5" vertex="1" connectable="0">
          <mxGeometry x="0.3078" y="-1" relative="1" as="geometry">
            <mxPoint as="offset" />
          </mxGeometry>
        </mxCell>
        <mxCell id="-gAETM037NJfp5qsJ-lj-8" value="" style="whiteSpace=wrap;html=1;aspect=fixed;fillColor=none;strokeColor=#3333FF;" parent="1" vertex="1">
          <mxGeometry x="230" y="320" width="100" height="100" as="geometry" />
        </mxCell>
        <mxCell id="-gAETM037NJfp5qsJ-lj-9" value="" style="verticalLabelPosition=bottom;html=1;verticalAlign=top;align=center;strokeColor=none;fillColor=#00BEF2;shape=mxgraph.azure.computer;pointerEvents=1;" parent="1" vertex="1">
          <mxGeometry x="350" y="190" width="50" height="45" as="geometry" />
        </mxCell>
        <mxCell id="-gAETM037NJfp5qsJ-lj-10" value="FCT Fixture A" style="text;html=1;strokeColor=none;fillColor=none;align=center;verticalAlign=middle;whiteSpace=wrap;rounded=0;fontColor=#3333FF;" parent="1" vertex="1">
          <mxGeometry x="240" y="420" width="80" height="20" as="geometry" />
        </mxCell>
        <mxCell id="-gAETM037NJfp5qsJ-lj-12" value="Common Wi-Fi Modules" style="text;html=1;strokeColor=none;fillColor=none;align=center;verticalAlign=middle;whiteSpace=wrap;rounded=0;fontSize=10;" parent="1" vertex="1">
          <mxGeometry x="140" y="360" width="100" height="20" as="geometry" />
        </mxCell>
        <mxCell id="-gAETM037NJfp5qsJ-lj-18" value="AWS Cloud &lt;br&gt;- Manufacture" style="outlineConnect=0;fontColor=#232F3E;gradientColor=none;strokeColor=#232F3E;fillColor=#ffffff;dashed=0;verticalLabelPosition=bottom;verticalAlign=top;align=center;html=1;fontSize=12;fontStyle=0;aspect=fixed;shape=mxgraph.aws4.resourceIcon;resIcon=mxgraph.aws4.aws_cloud;" parent="1" vertex="1">
          <mxGeometry x="930" y="100" width="50" height="50" as="geometry" />
        </mxCell>
        <mxCell id="-gAETM037NJfp5qsJ-lj-19" value="" style="endArrow=classic;html=1;dashed=1;edgeStyle=orthogonalEdgeStyle;exitX=0.5;exitY=0;exitDx=0;exitDy=0;startArrow=classic;" parent="1" edge="1">
          <mxGeometry width="50" height="50" relative="1" as="geometry">
            <mxPoint x="840" y="190" as="sourcePoint" />
            <mxPoint x="930" y="130" as="targetPoint" />
            <Array as="points">
              <mxPoint x="840" y="130" />
              <mxPoint x="930" y="130" />
            </Array>
          </mxGeometry>
        </mxCell>
        <mxCell id="-gAETM037NJfp5qsJ-lj-23" value="" style="html=1;shadow=0;dashed=0;align=center;verticalAlign=middle;shape=mxgraph.arrows2.arrow;dy=0.6;dx=40;notch=0;strokeColor=#000000;fillColor=none;fontSize=10;fontColor=#000000;" parent="1" vertex="1">
          <mxGeometry x="490" y="300" width="60" height="30" as="geometry" />
        </mxCell>
        <mxCell id="-gAETM037NJfp5qsJ-lj-24" value="2" style="ellipse;whiteSpace=wrap;html=1;aspect=fixed;strokeColor=#FFB570;fontSize=14;" parent="1" vertex="1">
          <mxGeometry x="614" y="110" width="30" height="30" as="geometry" />
        </mxCell>
        <mxCell id="-gAETM037NJfp5qsJ-lj-25" value="" style="pointerEvents=1;verticalLabelPosition=bottom;shadow=0;dashed=0;align=center;html=1;verticalAlign=top;shape=mxgraph.electrical.miscellaneous.terminal_board" parent="1" vertex="1">
          <mxGeometry x="705" y="330" width="40" height="80" as="geometry" />
        </mxCell>
        <mxCell id="-gAETM037NJfp5qsJ-lj-26" value="" style="pointerEvents=1;verticalLabelPosition=bottom;shadow=0;dashed=0;align=center;html=1;verticalAlign=top;shape=mxgraph.electrical.miscellaneous.terminal_board" parent="1" vertex="1">
          <mxGeometry x="745" y="330" width="40" height="80" as="geometry" />
        </mxCell>
        <mxCell id="-gAETM037NJfp5qsJ-lj-27" value="" style="endArrow=classic;html=1;dashed=1;edgeStyle=orthogonalEdgeStyle;exitX=0.5;exitY=0;exitDx=0;exitDy=0;startArrow=classic;" parent="1" source="-gAETM037NJfp5qsJ-lj-29" edge="1">
          <mxGeometry width="50" height="50" relative="1" as="geometry">
            <mxPoint x="745" y="305" as="sourcePoint" />
            <mxPoint x="835" y="240" as="targetPoint" />
            <Array as="points">
              <mxPoint x="745" y="280" />
              <mxPoint x="835" y="280" />
            </Array>
          </mxGeometry>
        </mxCell>
        <mxCell id="-gAETM037NJfp5qsJ-lj-28" value="USB Cable" style="edgeLabel;html=1;align=center;verticalAlign=middle;resizable=0;points=[];" parent="-gAETM037NJfp5qsJ-lj-27" vertex="1" connectable="0">
          <mxGeometry x="0.3078" y="-1" relative="1" as="geometry">
            <mxPoint as="offset" />
          </mxGeometry>
        </mxCell>
        <mxCell id="-gAETM037NJfp5qsJ-lj-29" value="" style="whiteSpace=wrap;html=1;aspect=fixed;fillColor=none;strokeColor=#3333FF;" parent="1" vertex="1">
          <mxGeometry x="695" y="320" width="100" height="100" as="geometry" />
        </mxCell>
        <mxCell id="-gAETM037NJfp5qsJ-lj-30" value="" style="verticalLabelPosition=bottom;html=1;verticalAlign=top;align=center;strokeColor=none;fillColor=#00BEF2;shape=mxgraph.azure.computer;pointerEvents=1;" parent="1" vertex="1">
          <mxGeometry x="815" y="190" width="50" height="45" as="geometry" />
        </mxCell>
        <mxCell id="-gAETM037NJfp5qsJ-lj-31" value="FCT Fixture B" style="text;html=1;strokeColor=none;fillColor=none;align=center;verticalAlign=middle;whiteSpace=wrap;rounded=0;fontColor=#3333FF;" parent="1" vertex="1">
          <mxGeometry x="705" y="420" width="80" height="20" as="geometry" />
        </mxCell>
        <mxCell id="-gAETM037NJfp5qsJ-lj-32" value="Common Wi-Fi Modules" style="text;html=1;strokeColor=none;fillColor=none;align=center;verticalAlign=middle;whiteSpace=wrap;rounded=0;fontSize=10;" parent="1" vertex="1">
          <mxGeometry x="605" y="360" width="100" height="20" as="geometry" />
        </mxCell>
        <mxCell id="-gAETM037NJfp5qsJ-lj-35" value="Module Functional Test" style="text;html=1;strokeColor=none;fillColor=none;align=center;verticalAlign=middle;whiteSpace=wrap;rounded=0;fontSize=14;" parent="1" vertex="1">
          <mxGeometry x="172" y="185" width="150" height="20" as="geometry" />
        </mxCell>
        <mxCell id="-gAETM037NJfp5qsJ-lj-36" value="Certificates Generation&lt;br&gt;&amp;amp; Security Enabled" style="text;html=1;strokeColor=none;fillColor=none;align=center;verticalAlign=middle;whiteSpace=wrap;rounded=0;fontSize=14;" parent="1" vertex="1">
          <mxGeometry x="645" y="114" width="150" height="20" as="geometry" />
        </mxCell>
        <mxCell id="-gAETM037NJfp5qsJ-lj-39" value="Wi-Fi Common Module Manufacture Testing Workflow" style="text;html=1;strokeColor=none;fillColor=none;align=center;verticalAlign=middle;whiteSpace=wrap;rounded=0;fontSize=14;fontStyle=1" parent="1" vertex="1">
          <mxGeometry x="120" y="80" width="360" height="20" as="geometry" />
        </mxCell>
      </root>
    </mxGraphModel>
  </diagram>
</mxfile>
